<svg width="240" height="90" viewBox="0 0 240 90" fill="none" xmlns="http://www.w3.org/2000/svg">
<path d="M0 90.0001H21.6109L33.0112 74.077H11.4002L0 90.0001Z" fill="white"/>
<path d="M33.0112 72.5935H34.0025L42.0322 61.5165V61.4176L41.6357 61.022L41.3383 60.5275L31.1277 46.2858L12.3916 72.5935H33.0112Z" fill="white"/>
<path d="M56.1091 90H116.778L104.585 72.1978H68.7981L56.1091 90Z" fill="white"/>
<path d="M67.0137 72.1978H45.3037L32.7139 90H54.1265H54.2256L67.0137 72.1978Z" fill="white"/>
<path d="M74.3496 61.022L73.953 60.5275L63.8415 46.2858L32.7139 90.0001H54.2256L74.647 61.5165L74.3496 61.022Z" fill="white"/>
<path d="M21.6109 0H0L18.4387 25.9121H40.1487L21.6109 0Z" fill="white"/>
<path d="M139.182 41.3407H134.226V57.6594H139.182V41.3407Z" fill="white"/>
<path d="M153.854 40.9451C152.664 40.9451 151.673 41.2418 150.682 41.8352C149.69 42.4286 148.798 43.2198 148.203 44.1099V41.3407H143.247V57.6594H148.203V49.9451C148.203 46.1868 149.393 44.6044 151.871 44.6044C154.349 44.6044 155.043 47.0769 155.043 49.8462V57.6594H160V47.967C160 45.6923 159.504 43.9121 158.513 42.7253C157.423 41.5385 155.836 40.9451 153.854 40.9451Z" fill="white"/>
<path d="M171.698 40.9451C169.12 40.9451 167.038 41.7363 165.452 43.3187C163.866 44.9011 163.073 46.978 163.073 49.4506C163.073 52.1209 163.965 54.2967 165.65 55.7802C167.336 57.2637 169.616 58.055 172.391 58.055C174.672 58.055 176.357 57.6593 177.844 56.967V53.2088C176.357 54.0989 174.672 54.4945 172.887 54.4945C171.4 54.4945 170.211 54.1978 169.417 53.5055C168.525 52.8132 168.03 51.9231 168.03 50.8352H179.232C179.232 50.5385 179.331 50.1429 179.331 49.6484C179.331 46.6813 178.637 44.5055 177.348 43.022C175.96 41.7363 174.077 40.9451 171.698 40.9451ZM167.93 47.8681C168.03 46.7802 168.624 44.4066 170.904 44.4066C173.185 44.4066 174.374 45.5934 174.374 47.8681H167.93Z" fill="white"/>
<path d="M207.584 43.9121C206.295 41.9341 204.51 40.9451 202.131 40.9451C199.95 40.9451 198.166 41.7363 196.778 43.3187C195.39 44.9011 194.696 46.978 194.696 49.4506C194.696 51.9231 195.39 53.9011 196.679 55.3846C197.968 56.8681 199.752 57.6594 201.933 57.6594C204.312 57.6594 206.097 56.6703 207.286 54.6923H207.385C207.385 55.0879 207.286 55.5824 207.286 56.2747C207.286 59.4396 205.7 61.8132 202.429 61.8132C200.545 61.8132 198.562 61.3187 196.58 60.3297L196.183 64.3846C198.166 65.0769 200.347 65.4725 202.825 65.4725C205.799 65.4725 207.98 64.7802 209.566 63.2967C211.152 61.8132 212.144 58.9451 212.144 56.2747V41.4396H207.484C207.484 42.4286 207.484 43.2198 207.584 43.9121ZM205.303 52.6154C204.709 53.5055 203.916 53.9011 202.924 53.9011C202.032 53.9011 201.239 53.5055 200.644 52.6154C200.049 51.7253 199.752 50.6374 199.752 49.3517C199.752 48.0659 200.049 46.8791 200.644 46.0879C201.239 45.1978 201.933 44.8022 202.825 44.8022C203.816 44.8022 204.61 45.1978 205.204 46.0879C205.799 46.978 206.097 48.0659 206.097 49.4506C206.295 50.6374 205.997 51.7253 205.303 52.6154Z" fill="white"/>
<path d="M136.803 33.3297C135.415 33.3297 134.226 34.5165 134.226 35.9011C134.226 37.2858 135.415 38.4726 136.803 38.4726C138.191 38.4726 139.38 37.2858 139.38 35.9011C139.38 34.5165 138.29 33.3297 136.803 33.3297Z" fill="white"/>
<path d="M119.356 40.7473C119.356 37.088 125.997 36.2967 128.971 39.2638V34.8132C128.971 34.8132 126.791 33.3297 122.33 33.3297C117.869 33.3297 114.201 36.2967 114.201 40.7473C114.201 47.3737 124.61 47.3737 124.61 51.8242C124.61 55.4836 117.968 54.7913 114.201 51.8242V56.9671C114.201 56.9671 117.869 58.4506 120.843 58.4506C123.817 58.4506 130.458 57.7583 130.458 51.033C130.558 43.7143 119.356 44.4066 119.356 40.7473Z" fill="white"/>
<path d="M187.559 44.2088V41.4396H182.602V57.7582H187.559V50.0439C187.559 46.2857 188.749 44.7033 191.227 44.7033C192.02 44.7033 192.615 45 193.11 45.3956V41.0439C192.02 41.0439 190.731 41.0439 189.839 41.6374C188.749 42.1319 188.154 43.2198 187.559 44.2088Z" fill="white"/>
<path d="M221.264 41.3407H216.307V57.6594H221.264V41.3407Z" fill="white"/>
<path d="M218.885 33.3297C217.497 33.3297 216.307 34.5165 216.307 35.9011C216.307 37.2858 217.497 38.4726 218.885 38.4726C220.273 38.4726 221.462 37.2858 221.462 35.9011C221.462 34.5165 220.372 33.3297 218.885 33.3297Z" fill="white"/>
<path d="M240 47.3736C239.901 43.1209 237.422 40.9451 232.565 40.9451C230.186 40.9451 228.104 41.3407 226.419 42.1319V45.6923C228.104 44.8022 229.987 44.3077 231.772 44.3077C234.052 44.3077 235.241 45.1978 235.44 47.0769C232.069 47.6703 229.393 47.0769 226.815 48.7583C225.427 49.7473 224.634 51.033 224.634 52.8132C224.634 54.3956 225.13 55.5824 226.22 56.5714C227.311 57.4616 228.6 57.9561 230.285 57.9561C232.763 57.9561 234.647 56.967 235.836 54.989V57.5605H240.099V50.8352C240.099 50.7363 240.099 50.6374 240.099 50.4396V49.5495C240.099 48.7583 240 47.3736 240 47.3736ZM234.448 53.6044C233.754 54.3956 232.862 54.7912 231.772 54.7912C230.186 54.7912 229.294 54.0989 229.294 52.7143C229.294 51.1319 231.772 50.1429 235.142 50.1429C235.142 50.8352 235.142 52.8132 234.448 53.6044Z" fill="white"/>
<path d="M125.105 76.3517L125.006 77.8352C124.411 77.5385 123.717 77.4396 122.924 77.4396C122.131 77.4396 121.437 77.6374 120.942 78.1319C120.446 78.6264 120.248 79.2198 120.248 80.011C120.248 80.8022 120.446 81.3956 120.942 81.8902C121.338 82.3847 122.032 82.5825 122.825 82.5825C123.123 82.5825 123.42 82.5825 123.717 82.4836V80.7033H122.23V79.3187H125.403V83.5715C124.61 83.7693 123.817 83.9671 122.825 83.9671C121.437 83.9671 120.347 83.5715 119.554 82.8792C118.761 82.1869 118.364 81.1978 118.364 79.9121C118.364 78.6264 118.761 77.6374 119.554 76.9451C120.347 76.2528 121.536 75.8572 122.924 75.8572C123.618 76.055 124.411 76.1539 125.105 76.3517Z" fill="white"/>
<path d="M132.144 81.5934H128.178C128.178 81.989 128.377 82.2857 128.674 82.4835C128.971 82.6813 129.368 82.8791 129.963 82.8791C130.558 82.8791 131.152 82.6813 131.747 82.3846V83.6703C131.252 83.967 130.558 84.0659 129.765 84.0659C128.773 84.0659 127.98 83.7692 127.385 83.2747C126.791 82.7802 126.493 81.989 126.493 81C126.493 80.1099 126.791 79.4176 127.385 78.8242C127.98 78.2308 128.674 77.9341 129.566 77.9341C130.458 77.9341 131.152 78.2308 131.549 78.7253C132.045 79.2198 132.243 80.011 132.243 81.0989C132.144 81.2967 132.144 81.4945 132.144 81.5934ZM128.178 80.5055H130.558C130.558 79.7143 130.161 79.2198 129.467 79.2198C129.17 79.2198 128.872 79.3187 128.575 79.5165C128.377 79.8132 128.178 80.1099 128.178 80.5055Z" fill="white"/>
<path d="M137.199 78.3297L137.1 79.6154C136.605 79.4176 136.109 79.2198 135.613 79.2198C135.316 79.2198 135.118 79.2198 135.019 79.3187C134.82 79.4176 134.82 79.5165 134.82 79.7143C134.82 79.9121 134.919 80.011 135.019 80.1099C135.118 80.2088 135.415 80.3077 135.911 80.4066C136.506 80.6044 136.902 80.8022 137.199 81C137.497 81.2967 137.596 81.5934 137.596 82.1868C137.596 82.7802 137.398 83.2747 136.902 83.5714C136.406 83.8681 135.812 84.0659 135.019 84.0659C134.325 84.0659 133.631 83.967 133.036 83.7692L133.135 82.4835C133.73 82.7802 134.325 82.8791 134.919 82.8791C135.118 82.8791 135.415 82.8791 135.514 82.7802C135.712 82.6813 135.812 82.5824 135.812 82.3846C135.812 82.1868 135.712 82.0879 135.613 81.989C135.514 81.8901 135.118 81.7912 134.721 81.5934C134.126 81.3956 133.73 81.1978 133.432 81C133.135 80.7033 133.036 80.4066 133.036 79.9121C133.036 79.3187 133.234 78.9231 133.73 78.5275C134.126 78.2308 134.721 78.033 135.514 78.033C136.109 78.033 136.704 78.1319 137.199 78.3297Z" fill="white"/>
<path d="M137.992 79.4176V78.1319H139.182V76.8462L140.867 76.2528V78.1319H142.255V79.4176H140.867V81.6924C140.867 82.088 140.966 82.2858 141.066 82.4836C141.165 82.6814 141.363 82.7803 141.759 82.7803C141.958 82.7803 142.156 82.7803 142.354 82.6814V83.8682C142.057 83.9671 141.66 83.9671 141.264 83.9671C140.57 83.9671 139.975 83.7693 139.678 83.4726C139.38 83.1759 139.182 82.5825 139.182 81.7913V79.3187H137.992V79.4176Z" fill="white"/>
<path d="M145.13 75.7583V77.2418H143.346V75.7583H145.13ZM145.13 78.1319V83.9671H143.346V78.1319H145.13Z" fill="white"/>
<path d="M149.492 78.033C150.483 78.033 151.177 78.3297 151.772 78.8242C152.367 79.4176 152.664 80.1099 152.664 81.0989C152.664 81.989 152.367 82.7802 151.772 83.2747C151.177 83.8681 150.384 84.0659 149.393 84.0659C148.401 84.0659 147.608 83.7692 147.014 83.2747C146.419 82.6813 146.121 81.989 146.121 81.0989C146.121 80.1099 146.419 79.4176 147.014 78.8242C147.707 78.3297 148.501 78.033 149.492 78.033ZM149.492 79.3187C149.095 79.3187 148.699 79.5165 148.501 79.8132C148.203 80.1099 148.104 80.6044 148.104 81.0989C148.104 81.5934 148.203 82.0879 148.501 82.3846C148.798 82.6813 149.095 82.8791 149.492 82.8791C149.888 82.8791 150.285 82.6813 150.483 82.3846C150.781 82.0879 150.88 81.5934 150.88 81.0989C150.88 80.5055 150.781 80.1099 150.483 79.8132C150.285 79.4176 149.888 79.3187 149.492 79.3187ZM151.375 75.4615L149.69 77.4396H148.699L149.591 75.4615H151.375Z" fill="white"/>
<path d="M155.539 79.1209C155.737 78.8242 156.035 78.5275 156.431 78.3297C156.828 78.1319 157.125 78.033 157.522 78.033C158.216 78.033 158.81 78.2308 159.108 78.7253C159.504 79.1209 159.603 79.8132 159.603 80.6044V84.0659H157.819V81.2967C157.819 80.7033 157.72 80.2088 157.621 79.9121C157.522 79.6154 157.224 79.5165 156.828 79.5165C156.332 79.5165 155.936 79.7143 155.737 80.2088C155.539 80.5055 155.539 81 155.539 81.4945V84.0659H153.755V80.1099C153.755 79.4176 153.755 78.8242 153.656 78.2308H155.341C155.44 78.5275 155.539 78.8242 155.539 79.1209Z" fill="white"/>
<path d="M168.228 82.978C167.832 83.7692 167.138 84.1648 166.245 84.1648C165.452 84.1648 164.858 83.8681 164.362 83.3736C163.866 82.7802 163.668 82.0879 163.668 81.0989C163.668 80.2088 163.866 79.5165 164.362 78.9231C164.858 78.3297 165.452 78.033 166.245 78.033C167.038 78.033 167.633 78.3297 168.03 79.022C168.03 78.5275 168.03 77.9341 168.03 77.3407V75.4615H169.814V82.1868C169.814 82.978 169.814 83.4725 169.913 83.8681H168.327C168.228 83.6703 168.228 83.2747 168.228 82.978ZM166.741 79.3187C166.345 79.3187 166.047 79.5165 165.849 79.8132C165.651 80.1099 165.551 80.5055 165.551 81C165.551 81.4945 165.651 81.8901 165.948 82.2857C166.146 82.5824 166.543 82.7802 166.84 82.7802C167.237 82.7802 167.534 82.5824 167.832 82.2857C168.03 81.989 168.228 81.5934 168.228 81.0989C168.228 80.6044 168.129 80.2088 167.832 79.8132C167.435 79.5165 167.138 79.3187 166.741 79.3187Z" fill="white"/>
<path d="M176.753 81.5934H172.788C172.788 81.989 172.986 82.2857 173.284 82.4835C173.581 82.6813 173.978 82.8791 174.572 82.8791C175.167 82.8791 175.762 82.6813 176.357 82.3846V83.6703C175.861 83.967 175.167 84.0659 174.374 84.0659C173.383 84.0659 172.59 83.7692 171.995 83.2747C171.4 82.7802 171.103 81.989 171.103 81C171.103 80.1099 171.4 79.4176 171.995 78.8242C172.59 78.2308 173.284 77.9341 174.176 77.9341C175.068 77.9341 175.762 78.2308 176.159 78.7253C176.654 79.2198 176.852 80.011 176.852 81.0989C176.753 81.2967 176.753 81.4945 176.753 81.5934ZM172.788 80.5055H175.167C175.167 79.7143 174.771 79.2198 174.077 79.2198C173.779 79.2198 173.482 79.3187 173.185 79.5165C172.887 79.8132 172.788 80.1099 172.788 80.5055Z" fill="white"/>
<path d="M186.27 76.1538V77.6373H184.188V84.0659H182.305V77.6373H180.223V76.1538H186.27Z" fill="white"/>
<path d="M190.83 82.978C190.434 83.6703 189.74 84.0659 188.847 84.0659C188.253 84.0659 187.757 83.8681 187.36 83.5714C186.964 83.2747 186.766 82.7802 186.766 82.2857C186.766 81.6923 187.063 81.1978 187.559 80.9011C188.054 80.6044 188.847 80.4066 189.839 80.4066C190.136 80.4066 190.434 80.4066 190.632 80.4066C190.632 79.6154 190.235 79.2198 189.343 79.2198C188.748 79.2198 188.054 79.4176 187.46 79.7143L187.36 78.4286C187.955 78.1319 188.649 78.033 189.541 78.033C191.326 78.033 192.218 78.8242 192.218 80.4066C192.218 80.5055 192.218 80.7033 192.218 81.0989C192.218 81.4945 192.218 81.6923 192.218 81.8901C192.218 82.8791 192.218 83.5714 192.317 83.967H190.731C190.731 83.8681 190.731 83.7692 190.731 83.4725C190.83 83.4725 190.83 83.2747 190.83 82.978ZM190.731 81.2967C190.533 81.2967 190.434 81.2967 190.235 81.2967C189.046 81.2967 188.55 81.5934 188.55 82.1868C188.55 82.6813 188.847 82.8791 189.442 82.8791C189.839 82.8791 190.136 82.7802 190.434 82.4835C190.533 82.2857 190.731 81.8901 190.731 81.2967Z" fill="white"/>
<path d="M197.571 78.3297L197.472 79.6154C196.976 79.4176 196.481 79.2198 195.985 79.2198C195.688 79.2198 195.489 79.2198 195.39 79.3187C195.192 79.4176 195.192 79.5165 195.192 79.7143C195.192 79.9121 195.291 80.011 195.39 80.1099C195.489 80.2088 195.787 80.3077 196.283 80.4066C196.877 80.6044 197.274 80.8022 197.571 81C197.869 81.2967 197.968 81.5934 197.968 82.1868C197.968 82.7802 197.77 83.2747 197.274 83.5714C196.778 83.8681 196.183 84.0659 195.39 84.0659C194.696 84.0659 194.003 83.967 193.408 83.7692L193.507 82.4835C194.102 82.7802 194.696 82.8791 195.291 82.8791C195.489 82.8791 195.787 82.8791 195.886 82.7802C196.084 82.6813 196.183 82.5824 196.183 82.3846C196.183 82.1868 196.084 82.0879 195.985 81.989C195.886 81.8901 195.489 81.7912 195.093 81.5934C194.498 81.3956 194.102 81.1978 193.804 81C193.507 80.7033 193.408 80.4066 193.408 79.9121C193.408 79.3187 193.606 78.9231 194.102 78.5275C194.498 78.2308 195.093 78.033 195.886 78.033C196.58 78.033 197.175 78.1319 197.571 78.3297Z" fill="white"/>
<path d="M202.726 82.978C202.33 83.6703 201.636 84.0659 200.743 84.0659C200.149 84.0659 199.653 83.8681 199.256 83.5714C198.86 83.2747 198.662 82.7802 198.662 82.2857C198.662 81.6923 198.959 81.1978 199.455 80.9011C199.95 80.6044 200.743 80.4066 201.735 80.4066C202.032 80.4066 202.33 80.4066 202.528 80.4066C202.528 79.6154 202.131 79.2198 201.239 79.2198C200.644 79.2198 199.95 79.4176 199.356 79.7143L199.256 78.4286C199.851 78.1319 200.545 78.033 201.437 78.033C203.222 78.033 204.114 78.8242 204.114 80.4066C204.114 80.5055 204.114 80.7033 204.114 81.0989C204.114 81.4945 204.114 81.6923 204.114 81.8901C204.114 82.8791 204.114 83.5714 204.213 83.967H202.627C202.627 83.8681 202.627 83.7692 202.627 83.4725C202.726 83.4725 202.726 83.2747 202.726 82.978ZM202.528 81.2967C202.33 81.2967 202.23 81.2967 202.032 81.2967C200.843 81.2967 200.347 81.5934 200.347 82.1868C200.347 82.6813 200.644 82.8791 201.239 82.8791C201.636 82.8791 201.933 82.7802 202.23 82.4835C202.429 82.2857 202.528 81.8901 202.528 81.2967Z" fill="white"/>
<path d="M209.764 78.2308L209.665 79.5165C209.368 79.4176 208.971 79.3187 208.674 79.3187C208.178 79.3187 207.782 79.5165 207.484 79.8132C207.187 80.1099 207.088 80.5055 207.088 81C207.088 81.4945 207.187 81.8901 207.484 82.1868C207.782 82.4835 208.178 82.5824 208.674 82.5824C209.071 82.5824 209.368 82.4835 209.665 82.3846L209.764 83.7692C209.368 83.8681 208.872 83.967 208.377 83.967C207.385 83.967 206.592 83.6703 205.997 83.1758C205.403 82.6813 205.105 81.8901 205.105 81C205.105 80.1099 205.403 79.4176 205.997 78.8242C206.592 78.3297 207.385 78.033 208.277 78.033C208.971 78.1319 209.368 78.1319 209.764 78.2308Z" fill="white"/>
<path d="M212.739 75.7583V77.2418H210.954V75.7583H212.739ZM212.739 78.1319V83.9671H210.954V78.1319H212.739Z" fill="white"/>
<path d="M217.1 78.033C218.092 78.033 218.786 78.3297 219.38 78.8242C219.975 79.4176 220.272 80.1099 220.272 81.0989C220.272 81.989 219.975 82.7802 219.38 83.2747C218.786 83.8681 217.992 84.0659 217.001 84.0659C216.01 84.0659 215.217 83.7692 214.622 83.2747C214.027 82.6813 213.73 81.989 213.73 81.0989C213.73 80.1099 214.027 79.4176 214.622 78.8242C215.316 78.3297 216.109 78.033 217.1 78.033ZM217.1 79.3187C216.704 79.3187 216.307 79.5165 216.109 79.8132C215.812 80.1099 215.712 80.6044 215.712 81.0989C215.712 81.5934 215.812 82.0879 216.109 82.3846C216.406 82.6813 216.704 82.8791 217.1 82.8791C217.497 82.8791 217.893 82.6813 218.092 82.3846C218.389 82.0879 218.488 81.5934 218.488 81.0989C218.488 80.5055 218.389 80.1099 218.092 79.8132C217.893 79.4176 217.497 79.3187 217.1 79.3187Z" fill="white"/>
<path d="M223.147 79.1209C223.346 78.8242 223.643 78.5275 224.04 78.3297C224.436 78.1319 224.734 78.033 225.13 78.033C225.824 78.033 226.419 78.2308 226.716 78.7253C227.113 79.1209 227.212 79.8132 227.212 80.6044V84.0659H225.427V81.2967C225.427 80.7033 225.328 80.2088 225.229 79.9121C225.13 79.6154 224.833 79.5165 224.436 79.5165C223.94 79.5165 223.544 79.7143 223.346 80.2088C223.147 80.5055 223.147 81 223.147 81.4945V84.0659H221.363V80.1099C221.363 79.4176 221.363 78.8242 221.264 78.2308H222.949C223.147 78.5275 223.147 78.8242 223.147 79.1209Z" fill="white"/>
<path d="M234.151 81.5934H230.186C230.186 81.989 230.384 82.2857 230.681 82.4835C230.979 82.6813 231.375 82.8791 231.97 82.8791C232.565 82.8791 233.16 82.6813 233.755 82.3846V83.6703C233.259 83.967 232.565 84.0659 231.772 84.0659C230.781 84.0659 229.987 83.7692 229.393 83.2747C228.798 82.7802 228.5 81.989 228.5 81C228.5 80.1099 228.798 79.4176 229.393 78.8242C229.987 78.2308 230.681 77.9341 231.574 77.9341C232.466 77.9341 233.16 78.2308 233.556 78.7253C234.052 79.2198 234.25 80.011 234.25 81.0989C234.151 81.2967 234.151 81.4945 234.151 81.5934ZM230.186 80.5055H232.565C232.565 79.7143 232.168 79.2198 231.474 79.2198C231.177 79.2198 230.88 79.3187 230.582 79.5165C230.384 79.8132 230.186 80.1099 230.186 80.5055Z" fill="white"/>
<path d="M239.207 78.3297L239.108 79.6154C238.612 79.4176 238.116 79.2198 237.621 79.2198C237.323 79.2198 237.125 79.2198 237.026 79.3187C236.828 79.4176 236.828 79.5165 236.828 79.7143C236.828 79.9121 236.927 80.011 237.026 80.1099C237.125 80.2088 237.422 80.3077 237.918 80.4066C238.513 80.6044 238.909 80.8022 239.207 81C239.504 81.2967 239.603 81.5934 239.603 82.1868C239.603 82.7802 239.405 83.2747 238.909 83.5714C238.414 83.8681 237.819 84.0659 237.026 84.0659C236.332 84.0659 235.638 83.967 235.043 83.7692L235.142 82.4835C235.737 82.7802 236.332 82.8791 236.927 82.8791C237.125 82.8791 237.422 82.8791 237.522 82.7802C237.72 82.6813 237.819 82.5824 237.819 82.3846C237.819 82.1868 237.72 82.0879 237.621 81.989C237.522 81.8901 237.125 81.7912 236.728 81.5934C236.134 81.3956 235.737 81.1978 235.44 81C235.142 80.7033 235.043 80.4066 235.043 79.9121C235.043 79.3187 235.241 78.9231 235.737 78.5275C236.134 78.2308 236.728 78.033 237.522 78.033C238.116 78.033 238.711 78.1319 239.207 78.3297Z" fill="white"/>
<path d="M104.387 17.8022L116.481 0H32.7139L45.3037 17.8022H104.387Z" fill="white"/>
<path d="M68.0049 19.2858H46.394L75.539 60.2308L75.9356 59.7363L85.254 46.6814L86.4436 45.0001L85.254 43.3187L68.0049 19.2858Z" fill="white"/>
<path d="M52.6393 43.3187L41.2391 27.3956H40.1486H19.5291L42.5278 59.6374L43.2217 59.7363L52.6393 46.6813L53.8289 45L52.6393 43.3187Z" fill="white"/>
<path d="M23.891 3.16484L21.6109 0H0L8.8228 12.4615L18.4387 25.9121H40.1487L23.891 3.16484Z" fill="white"/>
<path d="M52.6393 43.3187L41.2391 27.3956H40.1486H19.5291L42.5278 59.6374L42.9243 60.2308L52.6393 46.6813L53.8289 45L52.6393 43.3187Z" fill="white"/>
</svg>